<svg xmlns="http://www.w3.org/2000/svg" xmlns:xlink="http://www.w3.org/1999/xlink" width="100" zoomAndPan="magnify" viewBox="0 0 75 74.999997" height="100" preserveAspectRatio="xMidYMid meet" version="1.0"><defs><g/><clipPath id="5ef41214c7"><path d="M 0 8 L 22 8 L 22 63 L 0 63 Z M 0 8 " clip-rule="nonzero"/></clipPath><clipPath id="c49ab1b767"><path d="M 0.234375 10.28125 L 7.382812 8.394531 L 21.039062 60.167969 L 13.890625 62.050781 Z M 0.234375 10.28125 " clip-rule="nonzero"/></clipPath><clipPath id="1c58e70a90"><path d="M 23.253906 7.34375 L 29.957031 7.34375 L 29.957031 53.007812 L 23.253906 53.007812 Z M 23.253906 7.34375 " clip-rule="nonzero"/></clipPath><clipPath id="d76ace4ffe"><path d="M 17 49 L 30 49 L 30 61 L 17 61 Z M 17 49 " clip-rule="nonzero"/></clipPath><clipPath id="de6d551b09"><path d="M 17.488281 57.351562 L 25.402344 49.4375 L 29.023438 53.058594 L 21.109375 60.972656 Z M 17.488281 57.351562 " clip-rule="nonzero"/></clipPath><clipPath id="07fdece3e9"><path d="M 14 58 L 22 58 L 22 65 L 14 65 Z M 14 58 " clip-rule="nonzero"/></clipPath><clipPath id="62186ddb20"><path d="M 14.457031 61.996094 L 19.371094 58.476562 L 21.039062 60.8125 L 16.125 64.328125 Z M 14.457031 61.996094 " clip-rule="nonzero"/></clipPath><clipPath id="412d0c380e"><path d="M 27 56 L 32 56 L 32 70 L 27 70 Z M 27 56 " clip-rule="nonzero"/></clipPath><clipPath id="db91e74c10"><path d="M 26.933594 56.996094 L 31.214844 56.796875 L 31.824219 69.902344 L 27.539062 70.097656 Z M 26.933594 56.996094 " clip-rule="nonzero"/></clipPath><clipPath id="e241df4258"><path d="M 29.074219 56.898438 C 29.644531 56.871094 30.199219 57.070312 30.617188 57.453125 C 31.039062 57.835938 31.289062 58.371094 31.316406 58.941406 L 31.722656 67.746094 C 31.75 68.3125 31.546875 68.867188 31.164062 69.289062 C 30.78125 69.710938 30.246094 69.960938 29.679688 69.988281 C 29.113281 70.011719 28.554688 69.8125 28.136719 69.429688 C 27.714844 69.046875 27.464844 68.511719 27.4375 67.945312 L 27.03125 59.136719 C 27.003906 58.570312 27.207031 58.015625 27.589844 57.59375 C 27.972656 57.175781 28.507812 56.921875 29.074219 56.898438 Z M 29.074219 56.898438 " clip-rule="nonzero"/></clipPath><clipPath id="61be34d027"><path d="M 17.863281 65.398438 L 30.980469 65.398438 L 30.980469 69.6875 L 17.863281 69.6875 Z M 17.863281 65.398438 " clip-rule="nonzero"/></clipPath><clipPath id="65c6e57ccb"><path d="M 17.863281 67.542969 C 17.863281 66.972656 18.089844 66.429688 18.492188 66.027344 C 18.894531 65.625 19.4375 65.398438 20.007812 65.398438 L 28.820312 65.398438 C 29.390625 65.398438 29.9375 65.625 30.339844 66.027344 C 30.742188 66.429688 30.964844 66.972656 30.964844 67.542969 C 30.964844 68.109375 30.742188 68.65625 30.339844 69.058594 C 29.9375 69.460938 29.390625 69.6875 28.820312 69.6875 L 20.007812 69.6875 C 19.4375 69.6875 18.894531 69.460938 18.492188 69.058594 C 18.089844 68.65625 17.863281 68.109375 17.863281 67.542969 Z M 17.863281 67.542969 " clip-rule="nonzero"/></clipPath><clipPath id="9fd32a869d"><path d="M 22 6.269531 L 32 6.269531 L 32 60 L 22 60 Z M 22 6.269531 " clip-rule="nonzero"/></clipPath><clipPath id="f51f146210"><path d="M 0.234375 7 L 22 7 L 22 67 L 0.234375 67 Z M 0.234375 7 " clip-rule="nonzero"/></clipPath><clipPath id="d083348e4a"><path d="M 15 54 L 32 54 L 32 70.082031 L 15 70.082031 Z M 15 54 " clip-rule="nonzero"/></clipPath></defs><g clip-path="url(#5ef41214c7)"><g clip-path="url(#c49ab1b767)"><path fill="#ffffff" d="M 0.234375 10.28125 L 7.382812 8.394531 L 21.042969 60.179688 L 13.894531 62.066406 Z M 0.234375 10.28125 " fill-opacity="1" fill-rule="nonzero"/></g></g><g clip-path="url(#1c58e70a90)"><path fill="#ffffff" d="M 23.253906 7.34375 L 29.957031 7.34375 L 29.957031 53.015625 L 23.253906 53.015625 Z M 23.253906 7.34375 " fill-opacity="1" fill-rule="nonzero"/></g><g clip-path="url(#d76ace4ffe)"><g clip-path="url(#de6d551b09)"><path fill="#ffffff" d="M 17.488281 57.351562 L 25.40625 49.433594 L 29.027344 53.054688 L 21.109375 60.972656 Z M 17.488281 57.351562 " fill-opacity="1" fill-rule="nonzero"/></g></g><g clip-path="url(#07fdece3e9)"><g clip-path="url(#62186ddb20)"><path fill="#ffffff" d="M 14.457031 61.996094 L 19.367188 58.480469 L 21.035156 60.8125 L 16.125 64.328125 Z M 14.457031 61.996094 " fill-opacity="1" fill-rule="nonzero"/></g></g><g clip-path="url(#412d0c380e)"><g clip-path="url(#db91e74c10)"><g clip-path="url(#e241df4258)"><path fill="#ffffff" d="M 26.933594 56.996094 L 31.214844 56.796875 L 31.820312 69.882812 L 27.539062 70.082031 Z M 26.933594 56.996094 " fill-opacity="1" fill-rule="nonzero"/></g></g></g><g clip-path="url(#61be34d027)"><g clip-path="url(#65c6e57ccb)"><path fill="#ffffff" d="M 17.863281 69.6875 L 17.863281 65.398438 L 30.960938 65.398438 L 30.960938 69.6875 Z M 17.863281 69.6875 " fill-opacity="1" fill-rule="nonzero"/></g></g><g clip-path="url(#9fd32a869d)"><path fill="#000000" d="M 22.824219 8.339844 L 22.824219 59.277344 L 24.152344 57.949219 L 24.152344 52.027344 L 27.777344 54.324219 L 28.039062 54.0625 C 28.523438 53.578125 29.175781 53.316406 29.832031 53.296875 C 29.90625 53.296875 30 53.296875 30.074219 53.296875 C 30.09375 53.296875 30.09375 53.296875 30.113281 53.296875 C 30.1875 53.296875 30.261719 53.316406 30.335938 53.335938 C 30.355469 53.335938 30.375 53.335938 30.390625 53.355469 C 30.558594 53.390625 30.730469 53.429688 30.878906 53.503906 C 30.972656 53.539062 31.046875 53.578125 31.121094 53.613281 L 31.121094 8.359375 C 31.121094 7.332031 30.28125 6.507812 29.269531 6.507812 L 24.65625 6.507812 C 23.648438 6.488281 22.824219 7.3125 22.824219 8.339844 Z M 29.832031 42.964844 L 29.832031 49.207031 L 24.152344 45.582031 L 24.152344 39.339844 Z M 29.832031 30.296875 L 29.832031 36.535156 L 24.152344 32.910156 L 24.152344 26.671875 Z M 29.832031 17.625 L 29.832031 23.867188 L 24.152344 20.242188 L 24.152344 14 Z M 29.289062 7.816406 C 29.589844 7.816406 29.8125 8.058594 29.8125 8.339844 L 29.8125 11.179688 L 24.542969 7.816406 C 24.582031 7.796875 24.617188 7.796875 24.675781 7.796875 L 29.289062 7.796875 Z M 29.289062 7.816406 " fill-opacity="1" fill-rule="nonzero"/></g><g clip-path="url(#f51f146210)"><path fill="#000000" d="M 21.925781 60.175781 L 8.398438 9.3125 C 8.269531 8.824219 7.96875 8.433594 7.539062 8.191406 C 7.109375 7.945312 6.605469 7.871094 6.136719 8.003906 L 1.671875 9.199219 C 1.1875 9.328125 0.792969 9.628906 0.550781 10.058594 C 0.308594 10.488281 0.234375 10.992188 0.363281 11.460938 L 15.125 66.976562 C 15.164062 66.9375 15.183594 66.917969 15.21875 66.882812 Z M 1.632812 11.125 C 1.617188 11.085938 1.617188 11.03125 1.617188 10.992188 C 1.617188 10.898438 1.632812 10.804688 1.691406 10.730469 C 1.765625 10.601562 1.878906 10.527344 2.007812 10.488281 L 6.472656 9.292969 C 6.511719 9.273438 6.566406 9.273438 6.605469 9.273438 L 2.363281 13.871094 Z M 4.007812 20.09375 L 8.566406 15.140625 L 10.175781 21.175781 L 5.613281 26.128906 Z M 7.277344 32.332031 L 11.835938 27.378906 L 13.445312 33.414062 L 8.882812 38.367188 Z M 10.527344 44.589844 L 15.089844 39.636719 L 16.695312 45.671875 L 12.136719 50.605469 Z M 13.78125 56.828125 L 18.339844 51.878906 L 19.945312 57.914062 L 15.386719 62.863281 Z M 13.78125 56.828125 " fill-opacity="1" fill-rule="nonzero"/></g><g clip-path="url(#d083348e4a)"><path fill="#000000" d="M 30.296875 54.679688 C 30.242188 54.660156 30.167969 54.644531 30.113281 54.625 C 30.113281 54.625 30.09375 54.625 30.09375 54.625 C 30.039062 54.605469 29.980469 54.605469 29.925781 54.605469 C 29.90625 54.605469 29.90625 54.605469 29.886719 54.605469 C 29.832031 54.605469 29.777344 54.605469 29.71875 54.605469 C 29.699219 54.605469 29.699219 54.605469 29.683594 54.605469 C 29.625 54.605469 29.589844 54.625 29.53125 54.644531 C 29.515625 54.644531 29.496094 54.644531 29.476562 54.660156 C 29.4375 54.679688 29.382812 54.699219 29.347656 54.71875 C 29.328125 54.71875 29.308594 54.738281 29.289062 54.738281 C 29.253906 54.753906 29.195312 54.792969 29.160156 54.8125 C 29.140625 54.828125 29.121094 54.828125 29.101562 54.847656 C 29.046875 54.886719 28.992188 54.941406 28.933594 54.996094 L 28.878906 55.054688 L 16.117188 67.816406 C 15.855469 68.078125 15.722656 68.414062 15.722656 68.730469 C 15.722656 69.40625 16.246094 70.058594 17.03125 70.058594 L 29.851562 70.058594 C 30.578125 70.058594 31.160156 69.480469 31.160156 68.75 L 31.160156 55.933594 C 31.214844 55.296875 30.804688 54.847656 30.296875 54.679688 Z M 30.1875 68.023438 C 30.1875 68.582031 29.738281 69.050781 29.160156 69.050781 C 28.597656 69.050781 28.132812 68.601562 28.132812 68.023438 C 28.132812 67.460938 28.578125 66.996094 29.160156 66.996094 C 29.738281 67.011719 30.1875 67.460938 30.1875 68.023438 Z M 20.375 68.023438 C 20.375 68.582031 19.929688 69.050781 19.347656 69.050781 C 18.789062 69.050781 18.320312 68.601562 18.320312 68.023438 C 18.320312 67.460938 18.769531 66.996094 19.347656 66.996094 C 19.910156 67.011719 20.375 67.460938 20.375 68.023438 Z M 30.1875 58.210938 C 30.1875 58.773438 29.738281 59.238281 29.160156 59.238281 C 28.597656 59.238281 28.132812 58.792969 28.132812 58.210938 C 28.132812 57.652344 28.578125 57.183594 29.160156 57.183594 C 29.738281 57.183594 30.1875 57.652344 30.1875 58.210938 Z M 30.1875 58.210938 " fill-opacity="1" fill-rule="nonzero"/></g><path stroke-linecap="butt" transform="matrix(0.30596, 0, 0, 0.30596, 31.821671, 7.821873)" fill="none" stroke-linejoin="miter" d="M 5.153503 94.995555 L 5.153503 4.923034 L 16.720577 4.923034 L 16.720577 94.995555 Z M 21.878521 67.852511 L 33.445595 67.852511 L 33.445595 83.402947 L 43.250796 83.402947 L 43.250796 54.344824 L 29.615438 54.344824 C 27.457783 54.344824 25.619308 53.566026 24.112779 52.021196 C 22.619018 50.463599 21.878521 48.714494 21.878521 46.735579 L 21.878521 12.647184 C 21.878521 10.412926 22.580717 8.561683 23.985107 7.118991 C 25.415033 5.650764 27.291809 4.923034 29.615438 4.923034 L 47.106487 4.923034 C 49.327978 4.923034 51.166454 5.650764 52.609146 7.118991 C 54.077373 8.561683 54.805103 10.361857 54.805103 12.493978 L 54.805103 31.440487 L 43.250796 31.440487 L 43.250796 16.490108 L 33.445595 16.490108 L 33.445595 42.752216 L 47.106487 42.752216 C 49.251375 42.752216 51.064316 43.531015 52.54531 45.075845 C 54.051838 46.607907 54.805103 48.408081 54.805103 50.476366 L 54.805103 87.399077 C 54.805103 89.467362 54.051838 91.267536 52.54531 92.774064 C 51.064316 94.255058 49.251375 94.995555 47.106487 94.995555 L 29.615438 94.995555 C 27.534386 94.995555 25.721445 94.255058 24.176615 92.774064 C 22.644553 91.267536 21.878521 89.467362 21.878521 87.399077 Z M 59.975814 94.995555 L 59.975814 4.923034 L 71.530121 4.923034 L 71.530121 94.995555 Z M 76.700832 87.399077 L 76.700832 12.647184 C 76.700832 10.578899 77.466864 8.778725 78.998926 7.246663 C 80.543756 5.701833 82.356697 4.923034 84.424982 4.923034 L 101.928798 4.923034 C 104.073686 4.923034 105.87386 5.701833 107.367621 7.246663 C 108.874149 8.778725 109.627414 10.578899 109.627414 12.647184 L 109.627414 87.399077 C 109.627414 89.467362 108.874149 91.267536 107.367621 92.774064 C 105.87386 94.255058 104.073686 94.995555 101.928798 94.995555 L 84.424982 94.995555 C 82.356697 94.995555 80.543756 94.255058 78.998926 92.774064 C 77.466864 91.267536 76.700832 89.467362 76.700832 87.399077 Z M 98.073107 83.402947 L 98.073107 16.490108 L 88.267906 16.490108 L 88.267906 83.402947 Z M 98.073107 83.402947 " stroke="#000000" stroke-width="20.912451" stroke-opacity="1" stroke-miterlimit="4"/><path stroke-linecap="butt" transform="matrix(0.30596, 0, 0, 0.30596, 31.821671, 7.821873)" fill="none" stroke-linejoin="miter" d="M 5.153503 101.928139 L 19.286782 101.928139 L 30.381469 146.689905 L 30.381469 101.928139 L 41.948543 101.928139 L 41.948543 192.00066 L 28.313185 192.00066 L 16.720577 143.613012 L 16.720577 192.00066 L 5.153503 192.00066 Z M 47.106487 192.00066 L 47.106487 101.928139 L 58.660794 101.928139 L 58.660794 192.00066 Z M 63.831505 164.857615 L 75.398579 164.857615 L 75.398579 180.408052 L 85.20378 180.408052 L 85.20378 151.349929 L 71.568422 151.349929 C 69.410767 151.349929 67.572292 150.57113 66.065764 149.013533 C 64.572002 147.468703 63.831505 145.706831 63.831505 143.740684 L 63.831505 109.652289 C 63.831505 107.405263 64.533701 105.566788 65.938092 104.124096 C 67.368017 102.655869 69.232027 101.928139 71.568422 101.928139 L 89.059472 101.928139 C 91.280963 101.928139 93.119438 102.655869 94.56213 104.124096 C 96.030357 105.566788 96.758087 107.354194 96.758087 109.499082 L 96.758087 128.445591 L 85.20378 128.445591 L 85.20378 113.482445 L 75.398579 113.482445 L 75.398579 139.757321 L 89.059472 139.757321 C 91.204359 139.757321 93.0173 140.523352 94.498294 142.08095 C 96.004823 143.600245 96.758087 145.400419 96.758087 147.481471 L 96.758087 184.391415 C 96.758087 186.472467 96.004823 188.259873 94.498294 189.766402 C 93.0173 191.260163 91.204359 192.00066 89.059472 192.00066 L 71.568422 192.00066 C 69.48737 192.00066 67.674429 191.260163 66.1296 189.766402 C 64.597537 188.259873 63.831505 186.472467 63.831505 184.391415 Z M 108.363462 192.00066 L 108.363462 113.482445 L 98.06034 113.482445 L 98.06034 101.928139 L 130.233657 101.928139 L 130.233657 113.482445 L 119.930535 113.482445 L 119.930535 192.00066 Z M 108.363462 192.00066 " stroke="#000000" stroke-width="20.912451" stroke-opacity="1" stroke-miterlimit="4"/><g fill="#ffde59" fill-opacity="1"><g transform="translate(31.821671, 36.888079)"><g><path d="M 1.578125 0 L 1.578125 -27.5625 L 5.125 -27.5625 L 5.125 0 Z M 1.578125 0 "/></g></g></g><g fill="#ffde59" fill-opacity="1"><g transform="translate(36.940133, 36.888079)"><g><path d="M 1.578125 -8.3125 L 5.125 -8.3125 L 5.125 -3.546875 L 8.109375 -3.546875 L 8.109375 -12.4375 L 3.9375 -12.4375 C 3.28125 -12.4375 2.722656 -12.671875 2.265625 -13.140625 C 1.804688 -13.617188 1.578125 -14.160156 1.578125 -14.765625 L 1.578125 -25.203125 C 1.578125 -25.878906 1.789062 -26.441406 2.21875 -26.890625 C 2.65625 -27.335938 3.226562 -27.5625 3.9375 -27.5625 L 9.296875 -27.5625 C 9.972656 -27.5625 10.535156 -27.335938 10.984375 -26.890625 C 11.429688 -26.441406 11.65625 -25.890625 11.65625 -25.234375 L 11.65625 -19.453125 L 8.109375 -19.453125 L 8.109375 -24.015625 L 5.125 -24.015625 L 5.125 -15.984375 L 9.296875 -15.984375 C 9.953125 -15.984375 10.507812 -15.742188 10.96875 -15.265625 C 11.425781 -14.796875 11.65625 -14.25 11.65625 -13.625 L 11.65625 -2.328125 C 11.65625 -1.691406 11.425781 -1.144531 10.96875 -0.6875 C 10.507812 -0.226562 9.953125 0 9.296875 0 L 3.9375 0 C 3.3125 0 2.757812 -0.226562 2.28125 -0.6875 C 1.8125 -1.144531 1.578125 -1.691406 1.578125 -2.328125 Z M 1.578125 -8.3125 "/></g></g></g><g fill="#ffde59" fill-opacity="1"><g transform="translate(48.594545, 36.888079)"><g><path d="M 1.578125 0 L 1.578125 -27.5625 L 5.125 -27.5625 L 5.125 0 Z M 1.578125 0 "/></g></g></g><g fill="#ffde59" fill-opacity="1"><g transform="translate(53.713005, 36.888079)"><g><path d="M 1.578125 -2.328125 L 1.578125 -25.203125 C 1.578125 -25.828125 1.8125 -26.375 2.28125 -26.84375 C 2.757812 -27.320312 3.3125 -27.5625 3.9375 -27.5625 L 9.296875 -27.5625 C 9.953125 -27.5625 10.507812 -27.320312 10.96875 -26.84375 C 11.425781 -26.375 11.65625 -25.828125 11.65625 -25.203125 L 11.65625 -2.328125 C 11.65625 -1.691406 11.425781 -1.144531 10.96875 -0.6875 C 10.507812 -0.226562 9.953125 0 9.296875 0 L 3.9375 0 C 3.3125 0 2.757812 -0.226562 2.28125 -0.6875 C 1.8125 -1.144531 1.578125 -1.691406 1.578125 -2.328125 Z M 8.109375 -3.546875 L 8.109375 -24.015625 L 5.125 -24.015625 L 5.125 -3.546875 Z M 8.109375 -3.546875 "/></g></g></g><g fill="#ffde59" fill-opacity="1"><g transform="translate(31.821671, 66.566204)"><g><path d="M 1.578125 -27.5625 L 5.90625 -27.5625 L 9.296875 -13.859375 L 9.296875 -27.5625 L 12.84375 -27.5625 L 12.84375 0 L 8.65625 0 L 5.125 -14.8125 L 5.125 0 L 1.578125 0 Z M 1.578125 -27.5625 "/></g></g></g><g fill="#ffde59" fill-opacity="1"><g transform="translate(44.657276, 66.566204)"><g><path d="M 1.578125 0 L 1.578125 -27.5625 L 5.125 -27.5625 L 5.125 0 Z M 1.578125 0 "/></g></g></g><g fill="#ffde59" fill-opacity="1"><g transform="translate(49.775737, 66.566204)"><g><path d="M 1.578125 -8.3125 L 5.125 -8.3125 L 5.125 -3.546875 L 8.109375 -3.546875 L 8.109375 -12.4375 L 3.9375 -12.4375 C 3.28125 -12.4375 2.722656 -12.671875 2.265625 -13.140625 C 1.804688 -13.617188 1.578125 -14.160156 1.578125 -14.765625 L 1.578125 -25.203125 C 1.578125 -25.878906 1.789062 -26.441406 2.21875 -26.890625 C 2.65625 -27.335938 3.226562 -27.5625 3.9375 -27.5625 L 9.296875 -27.5625 C 9.972656 -27.5625 10.535156 -27.335938 10.984375 -26.890625 C 11.429688 -26.441406 11.65625 -25.890625 11.65625 -25.234375 L 11.65625 -19.453125 L 8.109375 -19.453125 L 8.109375 -24.015625 L 5.125 -24.015625 L 5.125 -15.984375 L 9.296875 -15.984375 C 9.953125 -15.984375 10.507812 -15.742188 10.96875 -15.265625 C 11.425781 -14.796875 11.65625 -14.25 11.65625 -13.625 L 11.65625 -2.328125 C 11.65625 -1.691406 11.425781 -1.144531 10.96875 -0.6875 C 10.507812 -0.226562 9.953125 0 9.296875 0 L 3.9375 0 C 3.3125 0 2.757812 -0.226562 2.28125 -0.6875 C 1.8125 -1.144531 1.578125 -1.691406 1.578125 -2.328125 Z M 1.578125 -8.3125 "/></g></g></g><g fill="#ffde59" fill-opacity="1"><g transform="translate(61.430149, 66.566204)"><g><path d="M 3.546875 0 L 3.546875 -24.015625 L 0.390625 -24.015625 L 0.390625 -27.5625 L 10.234375 -27.5625 L 10.234375 -24.015625 L 7.09375 -24.015625 L 7.09375 0 Z M 3.546875 0 "/></g></g></g></svg>